<?xml version="1.0" standalone="no"?><!DOCTYPE svg PUBLIC "-//W3C//DTD SVG 1.1//EN" "http://www.w3.org/Graphics/SVG/1.1/DTD/svg11.dtd"><svg t="1648195057453" class="icon" viewBox="0 0 1024 1024" version="1.1" xmlns="http://www.w3.org/2000/svg" p-id="2375" data-spm-anchor-id="a313x.7781069.0.i1" xmlns:xlink="http://www.w3.org/1999/xlink" width="200" height="200"><defs><style type="text/css"></style></defs><path d="M467.552 128a28.448 28.448 0 1 1 0 56.896H207.232a22.336 22.336 0 0 0-22.336 22.336v609.536c0 12.352 9.984 22.336 22.336 22.336h609.536a22.336 22.336 0 0 0 22.336-22.336v-260.32a28.448 28.448 0 1 1 56.896 0v260.32A79.232 79.232 0 0 1 816.768 896H207.232A79.232 79.232 0 0 1 128 816.768V207.232A79.232 79.232 0 0 1 207.232 128z m341.792 33.728a28.448 28.448 0 1 1 40.224 40.224L379.744 671.808a28.448 28.448 0 1 1-40.224-40.224z" fill="#32BD32" p-id="2376"></path><path d="M626.304 184.896h190.464c12.352 0 22.336 9.984 22.336 22.336v190.464a28.448 28.448 0 1 0 56.896 0V207.232A79.232 79.232 0 0 0 816.768 128h-190.464a28.448 28.448 0 1 0 0 56.896z" fill="#32BD32" p-id="2377"></path></svg>